<?xml version="1.0" standalone="no"?><!DOCTYPE svg PUBLIC "-//W3C//DTD SVG 1.1//EN" "http://www.w3.org/Graphics/SVG/1.1/DTD/svg11.dtd"><svg class="icon" width="200px" height="200.00px" viewBox="0 0 1024 1024" version="1.1" xmlns="http://www.w3.org/2000/svg"><path d="M929.11 927.64h-831a32 32 0 0 1-28.4-46.74l414-797.42A32 32 0 0 1 540.5 113L150.82 863.64h778.29a32 32 0 0 1 0 64zM531.9 924.68a32 32 0 0 1-30.84-40.61c41.09-147.13-45.18-300.26-192.31-341.35A32 32 0 1 1 326 481.08a340.8 340.8 0 0 1 236.7 420.2 32 32 0 0 1-30.8 23.4z" /></svg>