<?xml version="1.0" standalone="no"?><!DOCTYPE svg PUBLIC "-//W3C//DTD SVG 1.1//EN" "http://www.w3.org/Graphics/SVG/1.1/DTD/svg11.dtd"><svg class="icon" width="200px" height="200.00px" viewBox="0 0 1024 1024" version="1.1" xmlns="http://www.w3.org/2000/svg"><path d="M512 0C230.4 0 0 230.4 0 512c0 281.6 230.4 512 512 512 281.6 0 512-230.4 512-512C1024 230.4 793.6 0 512 0zM512 985.6c-262.4 0-473.6-211.2-473.6-473.6 0-262.4 211.2-473.6 473.6-473.6 262.4 0 473.6 211.2 473.6 473.6C985.6 774.4 774.4 985.6 512 985.6zM768 256c-6.4-6.4-19.2-6.4-25.6 0L512 486.4 288 256C281.6 249.6 268.8 249.6 256 256 249.6 268.8 249.6 281.6 256 288L486.4 512 256 736c-6.4 6.4-6.4 19.2 0 25.6 6.4 6.4 6.4 6.4 12.8 6.4 6.4 0 12.8 0 12.8-6.4L512 537.6l224 224c6.4 6.4 6.4 6.4 12.8 6.4 6.4 0 12.8 0 12.8-6.4 6.4-6.4 6.4-19.2 0-25.6L537.6 512 768 288C774.4 281.6 774.4 268.8 768 256z" /></svg>