<svg width="100%" height="100%" xmlns="http://www.w3.org/2000/svg" viewBox="0 0 100 100" stroke-width="0.5">
    <circle cx="50" cy="50" r="49" fill="#DB7D28" stroke="#DB7D28" />

    <g>
        <path d="M23 54 C30 57 70 57 77 54 C87 52 83 30 70 30 C63 12 35 12 27 33 C15 36 13 52 23 54" fill="white" stroke="white" stroke-linejoin="round" stroke-linecap="round"/>
        <path d="M3 0 C0.5 0 0 1 0 3 C2 3 3 2 3 0" fill="#DB7D28" transform="translate(27, 43)"/>
        <path d="M3 0 C0.5 0 0 1 0 3 C2 3 3 2 3 0" fill="#DB7D28" transform="translate(41, 46)"/>
        <path d="M3 0 C0.5 0 0 1 0 3 C2 3 3 2 3 0" fill="#DB7D28" transform="translate(55, 45)"/>
        <path d="M3 0 C0.5 0 0 1 0 3 C2 3 3 2 3 0" fill="#DB7D28" transform="translate(69, 42)"/>
        <path d="M3 0 C0.5 0 0 1 0 3 C2 3 3 2 3 0" fill="#DB7D28" transform="translate(37, 28)"/>
        <path d="M3 0 C0.5 0 0 1 0 3 C2 3 3 2 3 0" fill="#DB7D28" transform="translate(48, 35)"/>
        <path d="M3 0 C0.5 0 0 1 0 3 C2 3 3 2 3 0" fill="#DB7D28" transform="translate(59, 28)"/>
    </g>
    <g>
        <path d="M22 56 C27 60 73 60 78 56 L67 85 C55 88 45 88 33 85 L22 56" fill="white" stroke="white" stroke-linejoin="round" stroke-linecap="round"/>
        <path d="M28.5 57 L36.75 90 L37.75 90 L29.5 57 L28.5 57" fill="#DB7D28"/>
        <path d="M35.5 57 L41 90 L42 90 L36.5 57 L35.5 57" fill="#DB7D28"/>
        <path d="M42.5 57 L45.25 90 L46.25 90 L43.5 57 L42.5 57" fill="#DB7D28"/>
        <path d="M49.5 57 L49.5 90 L50.5 90 L50.5 57 L49.5 57" fill="#DB7D28"/>
        <path d="M56.5 57 L53.75 90 L54.75 90 L57.5 57 L56.5 57" fill="#DB7D28"/>
        <path d="M63.5 57 L58 90 L59 90 L64.5 57 L63.5 57" fill="#DB7D28"/>
        <path d="M70.5 57 L62.25 90 L63.25 90 L71.5 57 L70.5 57" fill="#DB7D28"/>
   
    </g>

</svg>