<?xml version="1.0" encoding="UTF-8" standalone="no"?>
<!-- Created with Inkscape (http://www.inkscape.org/) -->

<svg
   version="1.1"
   id="svg2"
   xml:space="preserve"
   width="164.44"
   height="177.64"
   viewBox="0 0 164.44 177.64"
   sodipodi:docname="SLF_Logo_cmyk.eps"
   xmlns:inkscape="http://www.inkscape.org/namespaces/inkscape"
   xmlns:sodipodi="http://sodipodi.sourceforge.net/DTD/sodipodi-0.dtd"
   xmlns="http://www.w3.org/2000/svg"
   xmlns:svg="http://www.w3.org/2000/svg"><defs
     id="defs6" /><sodipodi:namedview
     id="namedview4"
     pagecolor="#ffffff"
     bordercolor="#666666"
     borderopacity="1.0"
     inkscape:pageshadow="2"
     inkscape:pageopacity="0.0"
     inkscape:pagecheckerboard="0" /><g
     id="g8"
     inkscape:groupmode="layer"
     inkscape:label="ink_ext_XXXXXX"
     transform="matrix(1.3333333,0,0,-1.3333333,0,177.64)"><g
       id="g10"
       transform="scale(0.1)"><path
         d="M 494.059,354.664 V 577.887 H 311.66 v 86.406 H 282.875 V 546.684 H 465.27 v -192.02 h 28.789"
         style="fill:#231f20;fill-opacity:1;fill-rule:nonzero;stroke:none"
         id="path12" /><path
         d="m 573.262,354.664 v 31.211 H 686.086 V 577.887 H 902.07 V 546.684 H 714.871 V 354.664 H 573.262"
         style="fill:#231f20;fill-opacity:1;fill-rule:nonzero;stroke:none"
         id="path14" /><path
         d="m 282.875,789.086 v -31.195 h 211.184 v 191.992 h 127.218 v 31.199 H 465.27 V 789.086 H 282.875"
         style="fill:#231f20;fill-opacity:1;fill-rule:nonzero;stroke:none"
         id="path16" /><path
         d="M 686.086,981.082 V 757.891 H 873.281 V 664.293 H 902.07 V 789.086 H 714.871 v 191.996 h -28.785"
         style="fill:#231f20;fill-opacity:1;fill-rule:nonzero;stroke:none"
         id="path18" /><path
         d="m 564.477,981.082 v 36.008 l -178.188,176.59 43.688,38.6 134.5,-130.39 v 230.4 h 56.8 v -230.4 l 132.805,129.4 40.801,-39.81 -173.606,-174.39 v -36.008 h -56.8"
         style="fill:#009ddb;fill-opacity:1;fill-rule:nonzero;stroke:none"
         id="path20" /><path
         d="M 630.09,354.664 V 318.66 L 808.293,142.078 764.609,103.461 630.09,233.84 V 3.44141 H 573.324 V 233.84 L 440.508,104.469 399.703,144.25 573.324,318.66 v 36.004 h 56.766"
         style="fill:#009ddb;fill-opacity:1;fill-rule:nonzero;stroke:none"
         id="path22" /><path
         d="M 459.273,546.684 303.922,455.023 234.195,214.02 179.41,233.91 229.48,414.391 27.1836,304.109 0,353.969 202.289,464.293 25.1211,518.902 l 15.3945,54.883 236.2224,-68.898 73.336,41.797 h 109.199"
         style="fill:#009ddb;fill-opacity:1;fill-rule:nonzero;stroke:none"
         id="path24" /><path
         d="m 721.074,546.684 155.321,-91.661 69.746,-241.003 54.799,19.89 -50.081,180.481 202.261,-110.282 27.19,49.86 -202.244,110.324 177.174,54.609 -15.42,54.883 -236.226,-68.898 -73.332,41.797 H 721.074"
         style="fill:#009ddb;fill-opacity:1;fill-rule:nonzero;stroke:none"
         id="path26" /><path
         d="M 347.34,789.086 301.523,814.746 59.0313,750.391 47.8672,807.633 228.387,857.668 29.6719,974.223 58.4063,1023.22 257.137,906.633 l -44.422,180.027 54.98,15.06 62.578,-237.978 128.672,-74.656 H 347.34"
         style="fill:#009ddb;fill-opacity:1;fill-rule:nonzero;stroke:none"
         id="path28" /><path
         d="m 833.633,789.086 45.808,25.66 242.489,-64.355 11.19,57.242 -180.515,50.035 198.715,116.555 -28.75,48.997 -198.715,-116.587 44.407,180.027 -54.969,15.06 -62.602,-237.978 -128.648,-74.656 h 111.59"
         style="fill:#009ddb;fill-opacity:1;fill-rule:nonzero;stroke:none"
         id="path30" /><path
         d="m 889.055,46.7695 c 1.433,-5.7187 4.285,-15.9882 18.601,-20.5195 7.871,-2.6211 14.563,-3.1016 19.805,-3.1016 26.473,0 31.75,13.8516 31.75,20.9922 0,15.0508 -12.426,18.8477 -19.574,20.7696 l -35.567,9.0507 c -23.132,5.9883 -34.351,22.211 -34.351,42.4801 0,30.079 24.336,47.5 56.316,47.5 15.75,0 31.25,-4.05 43.66,-13.839 9.551,-7.633 11.914,-15.27 13.352,-20.543 l -27.188,-6.918 c -1.925,5.488 -6.687,18.14 -29.347,18.14 -21.953,0 -27.457,-11.679 -27.457,-19.793 0,-12.418 14.09,-16.949 22.195,-19.109 l 26.973,-6.6602 C 961.824,91.6406 989.504,84 989.504,49.8711 c 0,-31.5 -26.965,-49.8593812 -63.242,-49.8593812 -19.074,0 -35.774,4.5273412 -48.91,15.0077812 -10.743,8.6094 -13.602,18.3907 -15.973,25.7813 l 27.676,5.9687"
         style="fill:#231f20;fill-opacity:1;fill-rule:nonzero;stroke:none"
         id="path32" /><path
         d="M 1014.07,2.39063 V 161.539 h 30.31 V 28.3906 h 67.52 V 2.39063 h -97.83"
         style="fill:#231f20;fill-opacity:1;fill-rule:nonzero;stroke:none"
         id="path34" /><path
         d="M 1132.89,2.39063 V 161.539 h 100.46 V 136.98 h -71.1 V 93.3008 h 56.07 V 69.4414 h -56.07 V 2.39063 h -29.36"
         style="fill:#231f20;fill-opacity:1;fill-rule:nonzero;stroke:none"
         id="path36" /></g></g></svg>
