<svg id="Layer_2" data-name="Layer 2" xmlns="http://www.w3.org/2000/svg" viewBox="0 0 367.33 294.5"><defs><style>.cls-1,.cls-2{fill:none;stroke-linecap:square;stroke-linejoin:round;stroke-width:21px;}.cls-1{stroke:#119390;}.cls-2{stroke:#1973a5;}</style></defs><title>swe2hs_logo</title><path class="cls-1" d="M10,285l1.84-21.47,1.84-17.38,1.84,6.29,1.84-1.4,1.84-12.28L21,233.68l1.84.33,1.84,4.73L26.58,242l1.84,2.36,1.84,1.77,1.84,1.36L34,248.55l1.84.85,1.84-47.14,1.84-5.67,1.84-22,1.84-44.38L45,150.52l1.84,7.67,1.84,4.69,1.84-17.8,1.84-14.35,1.84-2.06,1.84,19.41,1.84,14.86,1.84,7.45,1.84-2.57L63.48,160l1.84,6.52,1.84,4.58,1.84,3.4,1.84,2.61,1.84-14,1.84-.73,1.84-11.84,1.84,5.83,1.84,3.9,1.84,2.79,1.84,2.09,1.84-3.71,1.84,2.25,1.84,1.61,1.84,1.22L93,162.2l1.84-3.57,1.84,2.2,1.84,1.5,1.84-9.53,1.84,2.83,1.84-3.42,1.84-65.78,1.84,16.17,1.84,4.85,1.84,7.85,1.84,5.52,1.84,4.07L117,128l1.84,2.41,1.84,1.91,1.84,1.53,1.84,1.24L128,136.9l3.69,1.25,3.69.86,5.53.83,5.53.49,1.84-10.3,1.84,2.28L152,133.8l1.84,1,3.69,1.33,1.84-7.35,1.84,8.07,1.84,5.16,1.84,2.43,1.84,2,3.69-2,1.84,5.08,1.84,1.89,1.84-1.16,1.84-19.73,1.84-.12,1.84-1,1.84-6.69,1.84-5.89,1.84,5.18,1.84,3.5,1.84,2.52,1.84,1.89,1.84,1.46,1.84,1.15,3.69,1.65,1.84-4.72,1.84-14.43,1.84-1.22,1.84,3.6,1.84-50.15,1.84-18.1,1.84,4.44,1.84,11.68,1.84-17.61,1.84,1.35,1.84,5.07,1.84-17.22L224,43.65l1.84,9.26,1.84,6.65,1.84,5,1.84,9.07L233.19,78,235,81.36l1.84,0,1.84,9.68,3.69,9.72,1.84,3,1.84-.27,1.84,5.29,1.84,4.35,1.84,5,1.84-62.44,1.84,32.38L257.17,84,259,37.21l1.84-21.51,1.84-3.7,1.84,15.17,1.84,4.93,1.84,12.67,1.84,7,1.84,9.54,1.84,6.93,1.84,4.2,1.84,3.24L279.31,82l1.84,7.63,1.84,6,1.84,3,1.84,4.33,3.69,6.13,1.84-9.59,3.69,15.43,1.84,2.14,1.84,5.85,1.84-26.31L303.29,86l1.84,6.26L307,93.6l1.84-25.93,1.84,22.08,1.84-17.65,1.84,12,1.84,13.78,1.84,9,1.84-52.35,1.84,11.1,1.84,33.64,1.84,5.59,1.84,10.44,1.84,3.77L331,131.55l1.84,9.06,3.69,25.27,1.84,2.22,1.84,8.73,1.84,3.82,1.84,6,5.53,36.83,1.84,8.64,1.84,10.79,1.84,17.27L358.63,285h0"/><path class="cls-2" d="M10.34,288.54l3.33-7.23h1.84l1.84-.46,1.84-1.38,1.84-.92,1.84-.46H35.81l1.84-4.15,1.84-1.38,1.84-2.77,1.84-5.07H45l3.69-.92,3.69-4.61,1.84-1.38,3.69.92h1.84l1.84-.69,1.84-1.15h7.38l1.84-1.38,1.84-.46,1.84-1.38h7.38l1.84-.46h5.53l3.69-.92h3.69l1.84-.92h1.84l1.84-.46,1.84-6h1.84l1.84-.46h36.89l1.84-.92h9.22l1.84-.69,1.84.46,1.84.23h3.69l3.69-.46,1.84.23h1.84L176,243l1.84-1.84,3.69-.92,3.69-1.84H200l1.84-.46,1.84-1.38,1.84-.46h1.84l1.84-4.61,1.84-2.77,1.84-.92h1.84l1.84-2.31,1.84-.92,1.84-.46,1.84-2.31,1.84-.46h5.53l1.84.46H235l1.84-.23,1.84.92,3.69.46h1.84l1.84-.23,1.84.23,1.84.46,1.84.69,1.84-5.53,1.84,1.84,1.84-.92,1.84-4.61,1.84-3.23,1.84-1.84h1.84l1.84-.46,1.84.23h1.84l1.84.46,1.84.23h3.69l1.84.69,1.84,1.15,1.84.92,1.84.23,1.84.69,3.69.92,1.84-.92,1.84.46,1.84,1.38,1.84.46,1.84,1.84,1.84-2.31,1.84-1.38h1.84l1.84-.23,1.84-2.54,1.84,1.38,1.84-1.84,1.84.46L318,214l1.84-4.61h1.84l1.84,3.23,1.84.46,1.84,1.84,1.84.92L331,220l1.84,3.69,3.69,10.61,1.84.92,1.84,3.69L342,240.5l1.84,2.54,5.53,15.68,1.84,3.69L353.1,267l1.84,7.38,4.18,13.86L361,294.5"/></svg>